<svg viewBox="0 0 800 800" xmlns="http://www.w3.org/2000/svg"><path d="M280.73057960578166,221.41485070685454 L42.213641869572086,357.6093961875767 M42.213641869572086,357.6093961875767 L74.61945298440844,287.4240179551051 M74.61945298440844,287.4240179551051 L69.76318943076376,271.40650739287554 M69.76318943076376,271.40650739287554 L66.44393569507275,255.6560612656437 M66.44393569507275,255.6560612656437 L64.72034396666527,240.44674945296515 M64.72034396666527,240.44674945296515 L64.62358764380792,226.04360555713737 M64.62358764380792,226.04360555713737 L66.1567568136719,212.69819334339513 M66.1567568136719,212.69819334339513 L69.29470724223091,200.64416797856987 M69.29470724223091,200.64416797856987 L73.98437465931352,190.0932948592197 M280.73057960578166,221.41485070685454 L73.98437465931352,190.0932948592197 M42.213641869572086,357.6093961875767 L279.4127459634484,495.32142964022887 M279.4127459634484,495.32142964022887 L158.33104562503513,395.70430234154355 M158.33104562503513,395.70430234154355 L145.45356431094183,387.2030918807772 M145.45356431094183,387.2030918807772 L132.818227055239,376.79560956221326 M132.818227055239,376.79560956221326 L120.6645357613861,364.68060619202004 M120.6645357613861,364.68060619202004 L109.222643310345,351.0886975254067 M109.222643310345,351.0886975254067 L98.70911435445055,336.27797045267295 M98.70911435445055,336.27797045267295 L89.32295111388669,320.5293465650797 M89.32295111388669,320.5293465650797 L81.24195557103741,304.14122270838305 M81.24195557103741,304.14122270838305 L74.61945298440844,287.4240179551051 M279.4127459634484,495.32142964022887 L519.2695431003933,634.5764550643395 M519.2695431003933,634.5764550643395 L241.78749476613805,384.12855271100517 M241.78749476613805,384.12855271100517 L235.2410765261814,393.2742740663776 M235.2410765261814,393.2742740663776 L227.2191722557896,400.38009761266994 M227.2191722557896,400.38009761266994 L217.8771229429362,405.3127136455502 M217.8771229429362,405.3127136455502 L207.39510364892834,407.9806684521607 M207.39510364892834,407.9806684521607 L195.97455830828974,408.33584476274876 M195.97455830828974,408.33584476274876 L183.83428771416882,406.37433940093297 M183.83428771416882,406.37433940093297 L171.20623223672024,402.1361552356287 M171.20623223672024,402.1361552356287 L158.33104562503513,395.70430234154355 M519.2695431003933,634.5764550643395 L757.7863581304279,495.321429640229 M757.7863581304279,495.321429640229 L241.47848502060683,286.6052974984806 M241.47848502060683,286.6052974984806 L246.3359024468864,302.71238197020216 M246.3359024468864,302.71238197020216 L249.63622233807672,318.5379215938282 M249.63622233807672,318.5379215938282 L251.3221139510386,333.8026060108605 M251.3221139510386,333.8026060108605 L251.36503476282545,348.23753765964904 M251.36503476282545,348.23753765964904 L249.76565167794976,361.58893454210386 M249.76565167794976,361.58893454210386 L246.5537295263785,373.6227239457821 M246.5537295263785,373.6227239457821 L241.78749476613805,384.12855271100517 M757.7863581304279,495.321429640229 L517.9369847170669,357.6093961875767 M517.9369847170669,357.6093961875767 L157.27408610340615,177.8500987739377 M157.27408610340615,177.8500987739377 L170.21510156484823,186.33200242183253 M170.21510156484823,186.33200242183253 L182.9248263627067,196.74884341132304 M182.9248263627067,196.74884341132304 L195.15809584222143,208.90112721426314 M195.15809584222143,208.90112721426314 L206.67869937880718,222.5554108244005 M206.67869937880718,222.5554108244005 L217.26408040013476,237.44885957403102 M217.26408040013476,237.44885957403102 L226.709767150412,253.29425430392868 M226.709767150412,253.29425430392868 L234.8334264152774,269.7858316828057 M234.8334264152774,269.7858316828057 L241.47848502060683,286.6052974984806 M517.9369847170669,357.6093961875767 L280.73057960578166,221.41485070685454 M73.98437465931352,190.0932948592197 L80.45382023241154,180.87744460898494 M80.45382023241154,180.87744460898494 L88.40760823724906,173.68319767862855 M88.40760823724906,173.68319767862855 L97.69558278541643,168.65059472281916 M97.69558278541643,168.65059472281916 L108.14168509562171,165.8787005840285 M108.14168509562171,165.8787005840285 L119.54720544096779,165.42354493566054 M119.54720544096779,165.42354493566054 L131.6944867229547,167.29664133766636 M131.6944867229547,167.29664133766636 L144.35105493638437,171.46470626555478 M144.35105493638437,171.46470626555478 L157.27408610340615,177.8500987739377 M496.9878650448526,369.7043763564727 L613.5263398330345,437.2555416053791 M613.5263398330345,437.2555416053791 L718.3385780470362,499.17610594737846 M274.03331401346753,243.80132529266805 L380.0888064793821,303.09096595141534 M380.0888064793821,303.09096595141534 L496.9878650448526,369.7043763564727 M76.89289222706066,358.11607470790125 L166.18140411887882,305.91415827718964 M166.18140411887882,305.91415827718964 L274.03331401346753,243.80132529266805 M298.01302515246067,484.58307021583096 L211.51315064104006,434.7846111622799 M211.51315064104006,434.7846111622799 L76.89289222706066,358.11607470790125 M518.2842676226282,614.1715407367138 L384.7630199029646,535.2857483225598 M384.7630199029646,535.2857483225598 L298.01302515246067,484.58307021583096 M718.3385780470362,499.17610594737846 L609.631490902993,562.0968845249649 M609.631490902993,562.0968845249649 L518.2842676226282,614.1715407367138 M93.065733124786,281.2927792345457 L90.91907185061109,289.89582028058703 M90.91907185061109,289.89582028058703 L89.15016925959435,298.5904787223265 M89.15016925959435,298.5904787223265 L88.07745719970353,304.3554600666932 M88.07745719970353,304.3554600666932 L87.04291840710198,310.04317796288774 M87.04291840710198,310.04317796288774 L84.98790942020207,321.1434351114198 M84.98790942020207,321.1434351114198 L81.15267266946313,339.9413286585463 M81.15267266946313,339.9413286585463 L76.89289222706066,358.11607470790125 M93.065733124786,281.2927792345457 L89.27418949949862,265.55057089242365 M89.27418949949862,265.55057089242365 L87.34950502731277,251.0176423723202 M87.34950502731277,251.0176423723202 L87.18052400171939,236.85118386466172 M87.18052400171939,236.85118386466172 L88.90306451505671,223.71624935828012 M88.90306451505671,223.71624935828012 L91.41408471363695,214.84025351212762 M91.41408471363695,214.84025351212762 L94.98296979852319,206.8190862334696 M274.03331401346753,243.80132529266805 L193.07725424883594,229.5015691207465 M193.07725424883594,229.5015691207465 L166.32086605639944,224.21102489402404 M166.32086605639944,224.21102489402404 L139.8572265645568,218.44601941675245 M139.8572265645568,218.44601941675245 L117.09970546693165,212.87046089514752 M117.09970546693165,212.87046089514752 L94.98296979852319,206.8190862334696 M298.01302515246067,484.58307021583096 L172.82043301858275,381.4162075321618 M172.82043301858275,381.4162075321618 L160.79054991676136,373.5491160747296 M160.79054991676136,373.5491160747296 L148.97038770802334,364.0206473933189 M148.97038770802334,364.0206473933189 L137.63008428767205,353.0527739094422 M137.63008428767205,353.0527739094422 L126.95425651068598,340.83919974533006 M126.95425651068598,340.83919974533006 L117.11592355080825,327.5924769849865 M117.11592355080825,327.5924769849865 L108.2647843686338,313.5298319023222 M108.2647843686338,313.5298319023222 L100.53418007503547,298.87773890188873 M100.53418007503547,298.87773890188873 L96.57816198807808,290.1245374274211 M96.57816198807808,290.1245374274211 L93.065733124786,281.2927792345457 M252.3785171863143,373.3903554265279 L278.53713922654333,398.3997423707025 M278.53713922654333,398.3997423707025 L305.69654262955027,423.8736334191164 M305.69654262955027,423.8736334191164 L324.3521704442668,441.08785690605254 M324.3521704442668,441.08785690605254 L343.2907962713779,458.3718287398315 M343.2907962713779,458.3718287398315 L381.63666431839806,492.9435628479995 M381.63666431839806,492.9435628479995 L449.778289277944,553.601367020342 M449.778289277944,553.601367020342 L518.2842676226282,614.1715407367138 M252.3785171863143,373.3903554265279 L249.09535824488742,377.97009862821255 M249.09535824488742,377.97009862821255 L245.40804126299372,382.0138760427846 M245.40804126299372,382.0138760427846 L241.33840141571056,385.49982889924746 M241.33840141571056,385.49982889924746 L236.9103088664938,388.4103516876911 M236.9103088664938,388.4103516876911 L232.12999063490116,390.74008360576653 M232.12999063490116,390.74008360576653 L227.04130140673755,392.4671222569461 M227.04130140673755,392.4671222569461 L215.99688092746155,394.0974214051945 M215.99688092746155,394.0974214051945 L203.98071440332146,393.2619960531113 M203.98071440332146,393.2619960531113 L191.22240319634298,389.96141898435195 M191.22240319634298,389.96141898435195 L182.06988736709553,386.2450680666072 M182.06988736709553,386.2450680666072 L172.82043301858275,381.4162075321618 M249.75245557247862,296.0158115461354 L301.0297570683472,319.8554260423217 M301.0297570683472,319.8554260423217 L353.07274089947293,343.50145839982684 M353.07274089947293,343.50145839982684 L405.34682546511476,366.6958369838119 M405.34682546511476,366.6958369838119 L457.6602842910803,389.4586689958164 M457.6602842910803,389.4586689958164 L588.2547344603191,444.97123435503653 M588.2547344603191,444.97123435503653 L718.3385780470362,499.17610594737846 M249.75245557247862,296.0158115461354 L254.40842191227455,312.15596978337703 M254.40842191227455,312.15596978337703 L257.20361545445695,327.60137006541225 M257.20361545445695,327.60137006541225 L258.140132616344,341.0342467271986 M258.140132616344,341.0342467271986 L257.49650390472124,353.6282650865637 M257.49650390472124,353.6282650865637 L255.6060330416512,363.86031925829406 M255.6060330416512,363.86031925829406 L252.3785171863143,373.3903554265279 M496.9878650448526,369.7043763564727 L172.03027723524974,208.0711852444167 M172.03027723524974,208.0711852444167 L179.24035352274652,212.4983493269257 M179.24035352274652,212.4983493269257 L186.40547194948167,217.45534579705946 M186.40547194948167,217.45534579705946 L193.47526709789503,222.90514510389187 M193.47526709789503,222.90514510389187 L200.3987632626589,228.80438656970892 M200.3987632626589,228.80438656970892 L206.8356339875251,234.82047690410593 M206.8356339875251,234.82047690410593 L213.0449206408764,241.15074283377444 M213.0449206408764,241.15074283377444 L219.26953175798172,248.07340800457837 M219.26953175798172,248.07340800457837 L225.13483704991765,255.19970693910426 M225.13483704991765,255.19970693910426 L230.61469162711603,262.4815959433057 M230.61469162711603,262.4815959433057 L235.61944004364054,269.7763795192647 M235.61944004364054,269.7763795192647 L239.90943586714204,276.651865708345 M239.90943586714204,276.651865708345 L243.6942200959166,283.35077961997365 M243.6942200959166,283.35077961997365 L249.75245557247862,296.0158115461354 M94.98296979852319,206.8190862334696 L100.86440320542397,201.13307626754343 M100.86440320542397,201.13307626754343 L104.54652058119382,198.7821201158469 M104.54652058119382,198.7821201158469 L108.72614967605045,196.82692677244316 M108.72614967605045,196.82692677244316 L113.18770203871173,195.37267566404051 M113.18770203871173,195.37267566404051 L118.05031559520273,194.37711083037556 M118.05031559520273,194.37711083037556 L128.69503063668435,193.87410253043706 M128.69503063668435,193.87410253043706 L140.35956391684147,195.41043626785978 M140.35956391684147,195.41043626785978 L152.74828113402356,198.9971121828017 M152.74828113402356,198.9971121828017 L162.32354452528224,202.99396831071627 M162.32354452528224,202.99396831071627 L172.03027723524974,208.0711852444167" stroke="black"  stroke-width="4"  fill="red"/></svg>