<svg version="1.1" xmlns="http://www.w3.org/2000/svg" viewBox="-21.000001 -17.11177750117412 42.00000200000001 34.22355500234825" fill="none" stroke="black" stroke-width="0.6%" vector-effect="non-scaling-stroke">
    <path d="M 20 9.42443 A 20 6.68735 360 0 1 14.12566 14.1586 A 20 6.68735 360 0 1 -20 9.42443" />
    <path d="M -14.12566 -14.1586 A 20 6.68735 360 0 1 20 -9.42443 A 20 6.68735 360 0 1 14.12566 -4.69026 A 20 6.68735 360 0 1 -20 -9.42443 A 20 6.68735 360 0 1 -14.12566 -14.1586 Z" />
    <path d="M -10.59425 -12.97506 A 15 5.01551 360 0 1 15 -9.42443 A 15 5.01551 360 0 1 10.59425 -5.8738 A 15 5.01551 360 0 1 -15 -9.42443 A 15 5.01551 360 0 1 -10.59425 -12.97506 Z" />
    <path d="M -10.59425 -5.8738 L -10.59425 -12.97506" />
    <path d="M 20 -9.42443 L 20 9.42443" />
    <path d="M -20 -9.42443 L -20 9.42443" />
</svg>