<svg version="1.1" xmlns="http://www.w3.org/2000/svg" viewBox="-16.000001 -9.327283395602732 32.000002 16.17155307302628" fill="none" stroke="black" stroke-width="0.6%" vector-effect="non-scaling-stroke">
    <path d="M 10.6066 -2.41677 A 15 3.4623 360 0 1 -15 -4.86498 A 15 3.4623 360 0 1 15 -4.86498 A 15 3.4623 360 0 1 10.6066 -2.41677 Z" />
    <path d="M 10.6066 2.44822 A 15 3.4623 180 0 0 15 0" />
    <path d="M -15 0 A 15 3.4623 180 0 0 10.6066 2.44822" />
    <path d="M -4.24264 5.0282 L -4.24264 3.32092" />
    <path d="M 4.24264 4.70177 L 4.24264 3.32092" />
    <path d="M -0.70711 5.84427 L 4.24264 4.70177" />
    <path d="M -0.70711 5.84427 L -0.70711 3.45845" />
    <path d="M -4.24264 5.0282 L -0.70711 5.84427" />
    <path d="M -15 -4.86498 L -15 0" />
    <path d="M 15 -4.86498 L 15 0" />
</svg>