<svg version="1.1" xmlns="http://www.w3.org/2000/svg" viewBox="-21.000001 -17.11177750117412 42.00000200000001 34.22355500234825" fill="none" stroke="black" stroke-width="0.6%" vector-effect="non-scaling-stroke">
    <path d="M 20 9.42443 A 20 6.68735 360 0 1 14.12566 14.1586 A 20 6.68735 360 0 1 -20 9.42443" />
    <path d="M -14.12566 -14.1586 A 20 6.68735 360 0 1 20 -9.42443 A 20 6.68735 360 0 1 14.12566 -4.69026 A 20 6.68735 360 0 1 -20 -9.42443 A 20 6.68735 360 0 1 -14.12566 -14.1586 Z" />
    <path d="M -12.71309 -13.68518 A 18 6.01861 360 0 1 18 -9.42443 A 18 6.01861 360 0 1 12.71309 -5.16367 A 18 6.01861 360 0 1 -18 -9.42443 A 18 6.01861 360 0 1 -12.71309 -13.68518 Z" />
    <path d="M -12.71309 -5.16367 L -12.71309 -13.68518" />
    <path d="M 20 -9.42443 L 20 9.42443" />
    <path d="M -20 -9.42443 L -20 9.42443" />
</svg>