<svg viewBox="0 0 800 800" xmlns="http://www.w3.org/2000/svg"><path d="M281.62295393263514,227.16097236239153 L49.033788278048746,359.970725836171 M49.033788278048746,359.970725836171 L80.63422991165635,291.5296385105563 M80.63422991165635,291.5296385105563 L75.8986572564757,275.9102051365929 M75.8986572564757,275.9102051365929 L72.66189569015853,260.5511989452929 M72.66189569015853,260.5511989452929 L70.98113974114989,245.71987846018874 M70.98113974114989,245.71987846018874 L70.88678806693008,231.67469050276787 M70.88678806693008,231.67469050276787 L72.38185395789168,218.660946818268 M72.38185395789168,218.660946818268 L75.44181808023495,206.90649562920981 M75.44181808023495,206.90649562920981 L80.01493495021208,196.61783940609868 M281.62295393263514,227.16097236239153 L80.01493495021208,196.61783940609868 M49.033788278048746,359.970725836171 L280.3378719160244,494.2602537219146 M280.3378719160244,494.2602537219146 L162.26536970699226,397.11887356159696 M162.26536970699226,397.11887356159696 L149.70792761082544,388.8289404990213 M149.70792761082544,388.8289404990213 L137.38661165749687,378.68011143885286 M137.38661165749687,378.68011143885286 L125.5349714994004,366.8661977079457 M125.5349714994004,366.8661977079457 L114.37744011418528,353.6120836545561 M114.37744011418528,353.6120836545561 L104.12519995402829,339.1694420322041 M104.12519995402829,339.1694420322041 L94.97230751150101,323.8122127931037 M94.97230751150101,323.8122127931037 L87.09214592294143,307.8313768380124 M87.09214592294143,307.8313768380124 L80.63422991165635,291.5296385105563 M280.3378719160244,494.2602537219146 L514.233597947703,630.0544261778066 M514.233597947703,630.0544261778066 L243.6477069885963,385.83081169921047 M243.6477069885963,385.83081169921047 L237.26398442822426,394.7492378686258 M237.26398442822426,394.7492378686258 L229.44144553886923,401.6784630448635 M229.44144553886923,401.6784630448635 L220.33157067713645,406.48849061972226 M220.33157067713645,406.48849061972226 L210.1100570810458,409.09013974520275 M210.1100570810458,409.09013974520275 L198.97334227449704,409.43648899202776 M198.97334227449704,409.43648899202776 L187.13478927651087,407.52373218799613 M187.13478927651087,407.52373218799613 L174.82057413013007,403.3908780257109 M174.82057413013007,403.3908780257109 L162.26536970699226,397.11887356159696 M514.233597947703,630.0544261778066 L746.822643945685,494.26025372191464 M746.822643945685,494.26025372191464 L243.3463769464853,290.7312654066669 M243.3463769464853,290.7312654066669 L248.08307479753645,306.4380465433129 M248.08307479753645,306.4380465433129 L251.3013730750959,321.87027996047874 M251.3013730750959,321.87027996047874 L252.94536585550185,336.75559689534856 M252.94536585550185,336.75559689534856 L252.9872199724357,350.83178259661685 M252.9872199724357,350.83178259661685 L251.42758575608207,363.85136221510027 M251.42758575608207,363.85136221510027 L248.29548830224144,375.5860803597715 M248.29548830224144,375.5860803597715 L243.6477069885963,385.83081169921047 M746.822643945685,494.26025372191464 L512.9341571385698,359.970725836171 M512.9341571385698,359.970725836171 L161.2346784043132,184.6789188856171 M161.2346784043132,184.6789188856171 L173.85407565747096,192.95002496030725 M173.85407565747096,192.95002496030725 L186.24793042724286,203.10798010386054 M186.24793042724286,203.10798010386054 L198.1771710441707,214.95824775088846 M198.1771710441707,214.95824775088846 L209.4114573378144,228.27318656670235 M209.4114573378144,228.27318656670235 L219.73376385094514,242.79649401511102 M219.73376385094514,242.79649401511102 L228.94470048770225,258.2480890870319 M228.94470048770225,258.2480890870319 L236.86646549278066,274.3298074726807 M236.86646549278066,274.3298074726807 L243.3463769464853,290.7312654066669 M512.9341571385698,359.970725836171 L281.62295393263514,227.16097236239153 M80.01493495021208,196.61783940609868 L86.3235978165734,187.6310272289678 M86.3235978165734,187.6310272289678 L94.07971330839894,180.61557622189818 M94.07971330839894,180.61557622189818 L103.13685730531063,175.70804666164088 M103.13685730531063,175.70804666164088 L113.32334654893907,173.00504136925696 M113.32334654893907,173.00504136925696 L124.44540977077344,172.5611975336718 M124.44540977077344,172.5611975336718 L136.29079922262702,174.387742572645 M136.29079922262702,174.387742572645 L148.63281848864528,178.4522201446481 M148.63281848864528,178.4522201446481 L161.2346784043132,184.6789188856171 M274.28852770994513,497.7528436259818 L45.427493018194525,364.1755119907605 M45.427493018194525,364.1755119907605 L44.13545415214742,363.2124521871738 M44.13545415214742,363.2124521871738 L43.198465657186375,362.08580871016176 M43.198465657186375,362.08580871016176 L42.62665677535517,360.8635247860364 M42.62665677535517,360.8635247860364 L42.425242955382714,359.5961893521407 M42.425242955382714,359.5961893521407 L42.608254616769784,358.32939466151686 M42.608254616769784,358.32939466151686 L43.20141379998472,357.11664400585016 M43.20141379998472,357.11664400585016 L43.95112980961903,356.2710220254552 M43.95112980961903,356.2710220254552 L44.9564635326862,355.55233779839364 M44.9564635326862,355.55233779839364 L162.64201186750503,288.911375389578 M162.64201186750503,288.911375389578 L279.2291985540409,222.5046959095871 M287.13831519621345,221.73600981002224 L286.33696972395217,221.37067679791542 M286.33696972395217,221.37067679791542 L285.4946207420408,221.1524310910697 M285.4946207420408,221.1524310910697 L284.6670354688811,221.05906173767568 M284.6670354688811,221.05906173767568 L283.80645788413483,221.06456588141725 M283.80645788413483,221.06456588141725 L282.9425435296936,221.16114815267238 M282.9425435296936,221.16114815267238 L282.09745925185837,221.33623099784776 M282.09745925185837,221.33623099784776 L281.0236705180659,221.66862702892934 M281.0236705180659,221.66862702892934 L280.0912965617108,222.0574731944109 M280.0912965617108,222.0574731944109 L279.2291985540409,222.5046959095871 M287.13831519621345,221.73600981002224 L403.04662346656596,288.8772851266135 M403.04662346656596,288.8772851266135 L519.7392064022447,356.04182695401914 M519.7392064022447,356.04182695401914 L637.4099190297711,423.39465150170366 M637.4099190297711,423.39465150170366 L756.3573353566346,491.0464885274112 M756.3573353566346,491.0464885274112 L757.009692925755,491.516581613538 M757.009692925755,491.516581613538 L757.4025913143004,492.01031228822893 M757.4025913143004,492.01031228822893 L757.5747570446173,492.49508570623374 M757.5747570446173,492.49508570623374 L757.5725289411822,492.9989259450568 M757.5725289411822,492.9989259450568 L757.409411030912,493.50448694719 M757.409411030912,493.50448694719 L757.1074265015978,493.9988188865104 M757.1074265015978,493.9988188865104 L756.5294759194194,494.62663874808703 M756.5294759194194,494.62663874808703 L755.8505484283443,495.1715026742181 M755.8505484283443,495.1715026742181 L755.0677987300372,495.6751058201525 M755.0677987300372,495.6751058201525 L522.0083652193654,632.4922324520874 M522.0083652193654,632.4922324520874 L520.6830085520345,633.1026121235739 M520.6830085520345,633.1026121235739 L519.1182831597937,633.5458010564658 M519.1182831597937,633.5458010564658 L517.4131774586501,633.8228700625737 M517.4131774586501,633.8228700625737 L515.6380940980313,633.9429006893218 M515.6380940980313,633.9429006893218 L513.844322244638,633.9146893474175 M513.844322244638,633.9146893474175 L511.49640608565153,633.6565382791789 M511.49640608565153,633.6565382791789 L509.03112815309146,633.0719486057219 M509.03112815309146,633.0719486057219 L507.87858299221983,632.6463980043227 M507.87858299221983,632.6463980043227 L506.85937010332043,632.1416491954486 M506.85937010332043,632.1416491954486 L274.28852770994513,497.7528436259818 M44.9564635326862,355.55233779839364 L57.81179356202006,325.9175161304353 M57.81179356202006,325.9175161304353 L65.92440930245368,307.77436644952684 M65.92440930245368,307.77436644952684 L69.84304162455527,300.74389360056165 M69.84304162455527,300.74389360056165 L74.52138402677599,293.9229967174509 M74.52138402677599,293.9229967174509 L69.68788743282909,278.37443488119675 M69.68788743282909,278.37443488119675 L66.33632077065505,262.83455097816574 M66.33632077065505,262.83455097816574 L64.5825385155074,247.84423987724676 M64.5825385155074,247.84423987724676 L64.40701596577492,233.54920145595975 M64.40701596577492,233.54920145595975 L65.78065102531775,220.1719077369118 M65.78065102531775,220.1719077369118 L69.05894152153411,206.61276059041933 M69.05894152153411,206.61276059041933 L72.02584011123122,198.89278975926948 M72.02584011123122,198.89278975926948 L75.65019107545572,191.881896423239 M279.2291985540409,222.5046959095871 L75.65019107545572,191.881896423239 M287.13831519621345,221.73600981002224 L195.97937344937532,207.56148950003856 M195.97937344937532,207.56148950003856 L132.91118256302627,198.21204780593123 M132.91118256302627,198.21204780593123 L104.40961400282009,194.66223890901597 M104.40961400282009,194.66223890901597 L75.65019107545572,191.881896423239 M75.65019107545572,191.881896423239 L75.65019107545572,191.881896423239 M45.427493018194525,364.1755119907605 L62.46557256070423,324.14994772529127 M62.46557256070423,324.14994772529127 L74.52138402677599,293.9229967174509 M74.52138402677599,293.9229967174509 L74.52138402677599,293.9229967174509 M274.28852770994513,497.7528436259818 L158.63144003702723,402.6502960072013 M158.63144003702723,402.6502960072013 L145.57369691673935,394.018258962636 M145.57369691673935,394.018258962636 L132.74803942075056,383.42903007832933 M132.74803942075056,383.42903007832933 L120.38342733601291,371.06288680379373 M120.38342733601291,371.06288680379373 L108.73682417492233,357.15682306945234 M108.73682417492233,357.15682306945234 L98.04602360341852,341.9734746366474 M98.04602360341852,341.9734746366474 L88.53273459676171,325.80677227872246 M88.53273459676171,325.80677227872246 L80.84059223437322,309.99661741078233 M80.84059223437322,309.99661741078233 L74.52138402677599,293.9229967174509 M506.85937010332043,632.1416491954486 L352.401134343915,492.17499602046064 M352.401134343915,492.17499602046064 L241.41905490626135,390.49494634442425 M241.41905490626135,390.49494634442425 L235.54073331580852,399.10060616443195 M235.54073331580852,399.10060616443195 L228.39830218670298,405.9915823853947 M228.39830218670298,405.9915823853947 L220.1393740510482,411.0305716002432 M220.1393740510482,411.0305716002432 L210.88848490996932,414.15466988646375 M210.88848490996932,414.15466988646375 L200.79847899988033,415.319779107194 M200.79847899988033,415.319779107194 L190.03251724888642,414.5175256669761 M190.03251724888642,414.5175256669761 L178.76060968584142,411.773493974013 M178.76060968584142,411.773493974013 L168.77071875543416,407.89164177929854 M168.77071875543416,407.89164177929854 L158.63144003702723,402.6502960072013 M522.0083652193654,632.4922324520874 L399.28571439583345,523.8898336015595 M399.28571439583345,523.8898336015595 L315.9333904354132,452.5682491057691 M315.9333904354132,452.5682491057691 L278.74758940440745,421.6789998720848 M278.74758940440745,421.6789998720848 L241.41905490626135,390.49494634442425 M241.41905490626135,390.49494634442425 L241.41905490626135,390.49494634442425 M755.0677987300372,495.6751058201525 L247.36016650084048,290.8139490598999 M247.36016650084048,290.8139490598999 L251.41755066943105,306.47111127606036 M251.41755066943105,306.47111127606036 L253.96953582980774,321.8805248592072 M253.96953582980774,321.8805248592072 L254.97726657469912,336.59816421309773 M254.97726657469912,336.59816421309773 L254.34279100964687,352.0025025299602 M254.34279100964687,352.0025025299602 L251.91658264025781,366.15651623447485 M251.91658264025781,366.15651623447485 L247.76378136634267,378.8061263119794 M247.76378136634267,378.8061263119794 L244.81548751074678,384.94654528732116 M244.81548751074678,384.94654528732116 L241.41905490626135,390.49494634442425 M756.3573353566346,491.0464885274112 L531.7543224081478,400.58852433456013 M531.7543224081478,400.58852433456013 L380.9643405688126,340.97086079529413 M380.9643405688126,340.97086079529413 L314.48951313685984,315.6317444689148 M314.48951313685984,315.6317444689148 L247.36016650084048,290.8139490598999 M247.36016650084048,290.8139490598999 L247.36016650084048,290.8139490598999 M519.7392064022447,356.04182695401914 L164.4377023060552,178.8343476610379 M164.4377023060552,178.8343476610379 L176.59582220862805,186.73692176549218 M176.59582220862805,186.73692176549218 L188.52495782776415,196.33297416544036 M188.52495782776415,196.33297416544036 L200.02485485402957,207.47944638928794 M200.02485485402957,207.47944638928794 L210.8910284417141,220.0108741556986 M210.8910284417141,220.0108741556986 L220.90351362160365,233.7230693541124 M220.90351362160365,233.7230693541124 L229.82870982275452,248.3529995837846 M229.82870982275452,248.3529995837846 L237.45210488585718,263.57777695168704 M237.45210488585718,263.57777695168704 L242.93188576162993,277.08445123629656 M242.93188576162993,277.08445123629656 L247.36016650084048,290.8139490598999 M75.65019107545572,191.881896423239 L82.927680424497,182.30166071762488 M82.927680424497,182.30166071762488 L91.60423331065698,174.86589032062403 M91.60423331065698,174.86589032062403 L101.69482180921926,169.55380040002072 M101.69482180921926,169.55380040002072 L112.96600069287206,166.58031702686228 M112.96600069287206,166.58031702686228 L125.18903261954205,166.05709931067815 M125.18903261954205,166.05709931067815 L138.106621553168,168.01566439021062 M138.106621553168,168.01566439021062 L151.1830665266287,172.29925845478365 M151.1830665266287,172.29925845478365 L164.4377023060552,178.8343476610379 M238.6105054075653,293.4401766683555 L243.34847405011445,309.14830615766596 M243.34847405011445,309.14830615766596 L246.5681032210172,324.58172391887985 M246.5681032210172,324.58172391887985 L248.21346351116588,339.4680401577291 M248.21346351116588,339.4680401577291 L248.25669770938637,353.545022471146 M248.25669770938637,353.545022471146 L246.69843195862936,366.5651820501986 M246.69843195862936,366.5651820501986 L243.5676674574563,378.300253485418 M243.5676674574563,378.300253485418 L238.92116037919286,388.545105528685 M241.41905490626135,390.49494634442425 L240.499340040406,389.9474183824708 M240.499340040406,389.9474183824708 L239.65577890609634,389.2889588743344 M239.65577890609634,389.2889588743344 L238.92116037919286,388.545105528685 M247.36016650084048,290.8139490598999 L246.0748612169003,291.4585945644678 M246.0748612169003,291.4585945644678 L244.69150930285426,292.0381608620534 M244.69150930285426,292.0381608620534 L243.33750261037105,292.51555917974986 M243.33750261037105,292.51555917974986 L241.97269787434342,292.9132646393639 M241.97269787434342,292.9132646393639 L240.6911857550703,293.2046462383241 M240.6911857550703,293.2046462383241 L239.5708976121768,293.3785514270669 M239.5708976121768,293.3785514270669 L239.05938396446984,293.42423393531044 M239.05938396446984,293.42423393531044 L238.6105054075653,293.4401766683555 M75.90789181845219,294.2227581628168 L71.17105703114697,278.60199126905434 M71.17105703114697,278.60199126905434 L67.93297077800878,263.2418112796504 M67.93297077800878,263.2418112796504 L66.25085063982254,248.4094970136459 M66.25085063982254,248.4094970136459 L66.15511908723357,234.3635125589093 M66.15511908723357,234.3635125589093 L67.64881358373111,221.34918361245371 M67.64881358373111,221.34918361245371 L70.70743889715095,209.59436878522155 M70.70743889715095,209.59436878522155 L75.27927315678738,199.30557718656036 M157.54465411750093,399.825844285734 L144.98712923584264,391.5342222675769 M144.98712923584264,391.5342222675769 L132.66553439693791,381.3836243607672 M132.66553439693791,381.3836243607672 L120.8134244500535,369.5678954703183 M120.8134244500535,369.5678954703183 L109.65524113719943,356.3119542663003 M109.65524113719943,356.3119542663003 L99.40217908565023,341.8675079365689 M99.40217908565023,341.8675079365689 L90.24831017843246,326.5085303684817 M90.24831017843246,326.5085303684817 L82.36703587165613,310.52603528570097 M82.36703587165613,310.52603528570097 L75.90789181845219,294.2227581628168 M238.92116037919286,388.545105528685 L232.5386823678193,397.4634075617413 M232.5386823678193,397.4634075617413 L224.717276336347,404.3922558151961 M224.717276336347,404.3922558151961 L215.60840132649736,409.2016614923837 M215.60840132649736,409.2016614923837 L205.38773581190367,411.802456253428 M205.38773581190367,411.802456253428 L194.25170142997007,412.147735584593 M194.25170142997007,412.147735584593 L182.41364848615814,410.23371428050365 M182.41364848615814,410.23371428050365 L170.09974368811555,406.0994256034719 M170.09974368811555,406.0994256034719 L157.54465411750093,399.825844285734 M156.4931126994671,187.37385423654231 L169.1125942463243,195.6466521250289 M169.1125942463243,195.6466521250289 L181.50673273581467,205.80638471307395 M181.50673273581467,205.80638471307395 L193.4364509306203,217.65848120090948 M193.4364509306203,217.65848120090948 L204.6713993040167,230.97526489116717 M204.6713993040167,230.97526489116717 L214.994539450878,245.50039746417428 M214.994539450878,245.50039746417428 L224.206464990959,260.95376242138775 M224.206464990959,260.95376242138775 L232.12935490229552,277.0371609891538 M232.12935490229552,277.0371609891538 L238.6105054075653,293.4401766683555 M75.27927315678738,199.30557718656036 L81.58668066985479,190.3188703124921 M81.58668066985479,190.3188703124921 L89.341651211961,183.30377522853132 M89.341651211961,183.30377522853132 L98.3977828980452,178.39684599840712 M98.3977828980452,178.39684599840712 L108.58341218250519,175.6946745767854 M108.58341218250519,175.6946745767854 L119.70478458751444,175.25188279711452 M119.70478458751444,175.25188279711452 L131.5496658695031,177.0796784697887 M131.5496658695031,177.0796784697887 L143.89136956480752,181.14558173854337 M143.89136956480752,181.14558173854337 L156.4931126994671,187.37385423654231 M75.65019107545572,191.881896423239 L74.68404074182513,192.70473452856675 M74.68404074182513,192.70473452856675 L74.04661548290636,193.70846559687226 M74.04661548290636,193.70846559687226 L73.73912750493395,194.78377999611655 M73.73912750493395,194.78377999611655 L73.7233013552954,195.95406355530028 M73.7233013552954,195.95406355530028 L73.99739254188898,197.137796389155 M73.99739254188898,197.137796389155 L74.52169091182844,198.25624580531073 M74.52169091182844,198.25624580531073 L74.87988877928774,198.80182625982715 M74.87988877928774,198.80182625982715 L75.27927315678738,199.30557718656036 M74.52138402677599,293.9229967174509 L74.83628471424925,294.08991496611077 M74.83628471424925,294.08991496611077 L75.30450173094249,294.1911600177668 M75.30450173094249,294.1911600177668 L75.90789181845219,294.2227581628168 M74.52138402677599,293.9229967174509 L74.83628471424925,294.08991496611077 M74.83628471424925,294.08991496611077 L75.30450173094249,294.1911600177668 M75.30450173094249,294.1911600177668 L75.90789181845219,294.2227581628168 M158.63144003702723,402.6502960072013 L158.04467551163964,401.9475670465229 M158.04467551163964,401.9475670465229 L157.6727512578088,400.9810322021745 M157.6727512578088,400.9810322021745 L157.54465411750093,399.825844285734 M241.41905490626135,390.49494634442425 L240.499340040406,389.9474183824708 M240.499340040406,389.9474183824708 L239.65577890609634,389.2889588743344 M239.65577890609634,389.2889588743344 L238.92116037919286,388.545105528685 M247.36016650084048,290.8139490598999 L246.13969096009265,291.4288400638065 M246.13969096009265,291.4288400638065 L244.77215156772033,292.00705810354305 M244.77215156772033,292.00705810354305 L243.3295492386627,292.5181186350086 M243.3295492386627,292.5181186350086 L241.88784666905855,292.9351492335668 M241.88784666905855,292.9351492335668 L240.52294200294517,293.2361708320272 M240.52294200294517,293.2361708320272 L239.49624617025867,293.3867659379792 M239.49624617025867,293.3867659379792 L238.6105054075653,293.4401766683555 M164.4377023060552,178.8343476610379 L163.554308843166,178.5906316500177 M163.554308843166,178.5906316500177 L162.54808321506925,178.66909999471653 M162.54808321506925,178.66909999471653 L161.47228684215975,179.06564084328284 M161.47228684215975,179.06564084328284 L160.38386925778545,179.7592249895545 M160.38386925778545,179.7592249895545 L159.34042422402476,180.71316764169893 M159.34042422402476,180.71316764169893 L158.3972008965974,181.87707294435916 M158.3972008965974,181.87707294435916 L157.60413383097503,183.18923171283635 M157.60413383097503,183.18923171283635 L157.00320555648102,184.58025741942956 M157.00320555648102,184.58025741942956 L156.6262265071025,185.97644646527726 M156.6262265071025,185.97644646527726 L156.52486685260996,186.69004043887963 M156.52486685260996,186.69004043887963 L156.4931126994671,187.37385423654231 M75.65019107545572,191.881896423239 L74.72304807746445,192.6603771451963 M74.72304807746445,192.6603771451963 L74.0743282886869,193.64718103105858 M74.0743282886869,193.64718103105858 L73.73818349080722,194.79034958397233 M73.73818349080722,194.79034958397233 L73.73234076722247,196.029770328627 M73.73234076722247,196.029770328627 L74.05711917706901,197.30018920206112 M74.05711917706901,197.30018920206112 L74.56853124256526,198.3342766931256 M74.56853124256526,198.3342766931256 L75.27927315678738,199.30557718656036" stroke="black"  stroke-width="4"  fill="red"/></svg>