<svg viewBox="0 0 800 800" xmlns="http://www.w3.org/2000/svg"><path d="M460.2080875936517,304.7056879733608 L160.4929596235281,476.79027231853064 M160.4929596235281,476.79027231853064 L74.73815865359495,350.4527187384006 M74.73815865359495,350.4527187384006 L63.71564387357961,329.41948244500475 M63.71564387357961,329.41948244500475 L54.58766238944264,307.8231569863415 M54.58766238944264,307.8231569863415 L47.53893035071496,286.0993092300374 M47.53893035071496,286.0993092300374 L42.712685334481534,264.68641711955223 M42.712685334481534,264.68641711955223 L40.2078147298036,244.01720561909985 M40.2078147298036,244.01720561909985 L40.076784436224614,224.51011684222644 M40.076784436224614,224.51011684222644 L42.324452964816544,206.5609067315086 M42.324452964816544,206.5609067315086 L46.907797667570776,190.53480924671607 M46.907797667570776,190.53480924671607 L53.73657002147007,176.7590424369345 M53.73657002147007,176.7590424369345 L62.67489467060733,165.5161024694612 M62.67489467060733,165.5161024694612 L73.54375782995709,157.03778035027517 M460.2080875936517,304.7056879733608 L73.54375782995709,157.03778035027517 M160.4929596235281,476.79027231853064 L309.93309306824153,563.5515808602457 M309.93309306824153,563.5515808602457 L157.78797977021844,438.3777595732833 M157.78797977021844,438.3777595732833 L142.4779442409868,428.3373941703881 M142.4779442409868,428.3373941703881 L127.42537768797933,416.1427471945994 M127.42537768797933,416.1427471945994 L112.88560561214399,402.0022629588906 M112.88560561214399,402.0022629588906 L99.10501799766126,386.15686622705545 M99.10501799766126,386.15686622705545 L86.31701100100565,368.8759051846016 M86.31701100100565,368.8759051846016 L74.73815865359495,350.4527187384006 M309.93309306824153,563.5515808602457 L460.2080875936517,650.79758944968 M460.2080875936517,650.79758944968 L240.7069900020401,446.5729916297553 M240.7069900020401,446.5729916297553 L229.17578801388936,451.64331487882305 M229.17578801388936,451.64331487882305 L216.42201121529538,454.1478666169097 M216.42201121529538,454.1478666169097 L202.6648065646862,454.04691377346586 M202.6648065646862,454.04691377346586 L188.1398787464995,451.345173490354 M188.1398787464995,451.345173490354 L173.09543970743368,446.09147736852054 M173.09543970743368,446.09147736852054 L157.78797977021844,438.3777595732833 M460.2080875936517,650.79758944968 L759.9232155637753,476.79027231853064 M759.9232155637753,476.79027231853064 L240.02473918831305,252.85564306949496 M240.02473918831305,252.85564306949496 L251.10984548740615,274.02138252415045 M251.10984548740615,274.02138252415045 L260.27460187385765,295.7517260920422 M260.27460187385765,295.7517260920422 L267.3313127218373,317.600249642642 M267.3313127218373,317.600249642642 L272.1360942230363,339.11837460844816 M272.1360942230363,339.11837460844816 L274.59179794352656,359.86485068016356 M274.59179794352656,359.86485068016356 L274.6499413812338,379.4149762813408 M274.6499413812338,379.4149762813408 L272.3115708350513,397.36950910352425 M272.3115708350513,397.36950910352425 L267.6270571916418,413.36278407208016 M267.6270571916418,413.36278407208016 L260.69484504537456,427.0702423439653 M260.69484504537456,427.0702423439653 L251.65918972854033,438.2149217434721 M251.65918972854033,438.2149217434721 L240.7069900020401,446.5729916297553 M759.9232155637753,476.79027231853064 L609.6505336729376,390.50963584629864 M609.6505336729376,390.50963584629864 L156.45985813234745,164.63323507779637 M156.45985813234745,164.63323507779637 L171.84499518135988,174.64974983508836 M171.84499518135988,174.64974983508836 L186.98519467474782,186.85272769607093 M186.98519467474782,186.85272769607093 L201.6191593636126,201.0332229272613 M201.6191593636126,201.0332229272613 L215.4940796404391,216.94746587821015 M215.4940796404391,216.94746587821015 L228.37013100692735,234.32150906833883 M228.37013100692735,234.32150906833883 L240.02473918831305,252.85564306949496 M609.6505336729376,390.50963584629864 L460.2080875936517,304.7056879733608 M73.54375782995709,157.03778035027517 L85.01665566747567,151.8462062619762 M85.01665566747567,151.8462062619762 L97.73355251425579,149.21836228372683 M97.73355251425579,149.21836228372683 L111.47781490764612,149.20241055031994 M111.47781490764612,149.20241055031994 L126.01461965668108,151.80150836982267 M126.01461965668108,151.80150836982267 L141.09494615091086,156.97393723102172 M141.09494615091086,156.97393723102172 L156.45985813234745,164.63323507779637 M583.326934177622,405.7075730324414 L649.68347839748,444.13380047378473 M649.68347839748,444.13380047378473 L714.2882994949168,482.1522895747254 M450.9659197028038,330.80964345199686 L517.2496932820357,368.0152219845224 M517.2496932820357,368.0152219845224 L583.326934177622,405.7075730324414 M201.19760777882263,474.6990386361734 L263.9952929117303,438.2168341761553 M263.9952929117303,438.2168341761553 L326.70416847650455,402.08329262876157 M326.70416847650455,402.08329262876157 L450.9659197028038,330.80964345199686 M333.30471703651534,550.0579889853426 L267.3377584197654,512.1613760073637 M267.3377584197654,512.1613760073637 L201.19760777882263,474.6990386361734 M463.84825122513763,627.0614046910713 L398.79491919892126,588.4167316370266 M398.79491919892126,588.4167316370266 L333.30471703651534,550.0579889853426 M714.2882994949168,482.1522895747254 L590.2381852130484,554.246159009563 M590.2381852130484,554.246159009563 L527.3468071099496,590.6286591196372 M527.3468071099496,590.6286591196372 L463.84825122513763,627.0614046910713 M99.11714122937087,340.88617403143144 L112.03349209960703,359.5138893542776 M112.03349209960703,359.5138893542776 L125.60027246723905,378.21375673538245 M125.60027246723905,378.21375673538245 L144.08350056039092,402.67083622919847 M144.08350056039092,402.67083622919847 L163.022022380988,426.9500203549784 M163.022022380988,426.9500203549784 L182.1232727470397,450.97182364360236 M182.1232727470397,450.97182364360236 L201.19760777882263,474.6990386361734 M99.11714122937087,340.88617403143144 L94.17451929832384,331.0964181113035 M94.17451929832384,331.0964181113035 L89.79318615632167,321.36253381130985 M89.79318615632167,321.36253381130985 L82.72741023981291,302.2926441580317 M82.72741023981291,302.2926441580317 L77.69910813131037,283.17141605746826 M77.69910813131037,283.17141605746826 L74.92776960393985,264.56551669133216 M74.92776960393985,264.56551669133216 L74.43720258509592,248.48046915712146 M74.43720258509592,248.48046915712146 L75.90593360597836,233.36459240242974 M75.90593360597836,233.36459240242974 L79.32337856718948,219.64164678957957 M79.32337856718948,219.64164678957957 L84.6552044328796,207.5687136881379 M84.6552044328796,207.5687136881379 L91.295059773427,198.0473170736421 M91.295059773427,198.0473170736421 L99.48633008615985,190.40512952247306 M450.9659197028038,330.80964345199686 L363.51001985179613,295.53438808076027 M363.51001985179613,295.53438808076027 L275.5938345740172,260.21856452428017 M275.5938345740172,260.21856452428017 L178.90701603672346,221.68070237835838 M178.90701603672346,221.68070237835838 L99.48633008615985,190.40512952247306 M333.30471703651534,550.0579889853426 L175.9946078605817,420.42406551786047 M175.9946078605817,420.42406551786047 L159.53941375937964,409.4990912952477 M159.53941375937964,409.4990912952477 L145.01634942247648,397.4746352841007 M145.01634942247648,397.4746352841007 L131.06017267176048,383.61944692882645 M131.06017267176048,383.61944692882645 L117.91070902251312,368.17996110214324 M117.91070902251312,368.17996110214324 L108.13598628720416,354.88668996931636 M108.13598628720416,354.88668996931636 L99.11714122937087,340.88617403143144 M252.77168226561,429.80675363431817 L281.76419549224204,457.77312050204654 M281.76419549224204,457.77312050204654 L310.6274739013687,485.3657536440019 M310.6274739013687,485.3657536440019 L348.57418503484126,521.1415382207899 M348.57418503484126,521.1415382207899 L386.8121701312288,556.65270783566 M386.8121701312288,556.65270783566 L463.84825122513763,627.0614046910713 M252.77168226561,429.80675363431817 L246.63374652722302,432.4704460097754 M246.63374652722302,432.4704460097754 L240.11291375788892,434.3729436288196 M240.11291375788892,434.3729436288196 L226.07380961834002,435.86317505932794 M226.07380961834002,435.86317505932794 L210.89423060699443,434.24676675955493 M210.89423060699443,434.24676675955493 L194.9269469275676,429.5454152754594 M194.9269469275676,429.5454152754594 L185.4945853165724,425.4655286812308 M185.4945853165724,425.4655286812308 L175.9946078605817,420.42406551786047 M251.01706052454674,277.6705310821925 L304.22580921027134,301.0299613594518 M304.22580921027134,301.0299613594518 L357.11936984197484,324.29150145803453 M357.11936984197484,324.29150145803453 L484.9090761645303,380.63858837018336 M484.9090761645303,380.63858837018336 L600.0651039632646,431.5585686361516 M600.0651039632646,431.5585686361516 L714.2882994949168,482.1522895747254 M251.01706052454674,277.6705310821925 L256.03599679162414,287.6006855392567 M256.03599679162414,287.6006855392567 L260.5520716971645,297.6182994047934 M260.5520716971645,297.6182994047934 L264.5427035854998,307.65088263570317 M264.5427035854998,307.65088263570317 L267.99062849224674,317.6273487349479 M267.99062849224674,317.6273487349479 L272.9027966020084,335.70790373107786 M272.9027966020084,335.70790373107786 L274.8185110626687,345.5265874080207 M274.8185110626687,345.5265874080207 L276.13084467553506,355.02863845900447 M276.13084467553506,355.02863845900447 L276.85307539864834,364.2903611140001 M276.85307539864834,364.2903611140001 L276.9727793844653,373.1418969409235 M276.9727793844653,373.1418969409235 L275.72114059650903,387.81327332695906 M275.72114059650903,387.81327332695906 L272.5216628142922,401.28253765514773 M272.5216628142922,401.28253765514773 L267.39424876412545,413.04856886239594 M267.39424876412545,413.04856886239594 L260.9431505287758,422.2722677048402 M260.9431505287758,422.2722677048402 L252.77168226561,429.80675363431817 M583.326934177622,405.7075730324414 L175.00173824641382,202.6075170067395 M175.00173824641382,202.6075170067395 L183.64143564489885,207.92879257081302 M183.64143564489885,207.92879257081302 L192.22988210193742,213.91941666622196 M192.22988210193742,213.91941666622196 L200.7096927134409,220.53779368014187 M200.7096927134409,220.53779368014187 L209.0232915406849,227.73604581369483 M209.0232915406849,227.73604581369483 L217.1139528723688,235.460632300467 M217.1139528723688,235.460632300467 L224.9226173594346,243.648825236138 M224.9226173594346,243.648825236138 L232.02827479002997,251.79542832945214 M232.02827479002997,251.79542832945214 L238.7777363918567,260.2313229792049 M238.7777363918567,260.2313229792049 L245.12270757709106,268.88301132172916 M245.12270757709106,268.88301132172916 L251.01706052454674,277.6705310821925 M99.48633008615985,190.40512952247306 L110.9504248977662,187.09911530968816 M110.9504248977662,187.09911530968816 L123.91493772295934,186.2486322649877 M123.91493772295934,186.2486322649877 L131.60896505693893,186.87711128537313 M131.60896505693893,186.87711128537313 L139.60514635161633,188.29709407211328 M139.60514635161633,188.29709407211328 L147.84150916162952,190.50453913198237 M147.84150916162952,190.50453913198237 L156.26550142254908,193.49024577130683 M156.26550142254908,193.49024577130683 L165.5930684079612,197.61119076751646 M165.5930684079612,197.61119076751646 L175.00173824641382,202.6075170067395" stroke="black"  stroke-width="4"  fill="red"/></svg>